<?xml version="1.0" standalone="no"?>
<!DOCTYPE svg PUBLIC "-//W3C//DTD SVG 20010904//EN"
 "http://www.w3.org/TR/2001/REC-SVG-20010904/DTD/svg10.dtd">
<svg version="1.0" xmlns="http://www.w3.org/2000/svg"
 width="64.000000pt" height="64.000000pt" viewBox="0 0 64.000000 64.000000"
 preserveAspectRatio="xMidYMid meet">

<g transform="translate(0.000000,64.000000) scale(0.100000,-0.100000)"
fill="#000000" stroke="none">
<path d="M281 589 c-18 -11 -58 -38 -87 -60 l-54 -40 0 -169 0 -169 55 -41
c30 -23 71 -50 89 -61 41 -24 52 -20 154 55 l62 46 0 169 0 169 -37 30 c-42
32 -134 92 -142 92 -4 0 -21 -9 -40 -21z m114 -71 l65 -43 0 -155 0 -155 -65
-43 c-36 -23 -69 -42 -75 -42 -6 0 -39 19 -75 43 l-65 42 0 155 0 155 63 42
c34 23 68 42 75 42 7 1 41 -18 77 -41z"/>
<path d="M258 463 c-40 -27 -50 -53 -20 -53 9 0 28 9 42 20 14 11 32 20 40 20
8 0 26 -9 40 -20 29 -23 60 -26 60 -6 0 19 -72 66 -101 65 -13 0 -41 -12 -61
-26z"/>
<path d="M263 359 c-24 -17 -43 -34 -43 -39 0 -22 24 -20 61 4 l39 26 39 -26
c37 -24 61 -26 61 -4 0 13 -82 70 -99 70 -9 -1 -35 -14 -58 -31z"/>
</g>
</svg>
