<?xml version="1.0" encoding="UTF-8"?>
<!DOCTYPE svg PUBLIC "-//W3C//DTD SVG 1.1//EN" "http://www.w3.org/Graphics/SVG/1.1/DTD/svg11.dtd">
<svg xmlns="http://www.w3.org/2000/svg" version="1.1" width="96px" height="96px" style="shape-rendering:geometricPrecision; text-rendering:geometricPrecision; image-rendering:optimizeQuality; fill-rule:evenodd; clip-rule:evenodd" xmlns:xlink="http://www.w3.org/1999/xlink">
<g><path style="opacity:0.865" fill="#050000" d="M 34.5,9.5 C 44.4163,9.18105 54.2496,9.51438 64,10.5C 62.6587,20.2103 60.8253,29.8769 58.5,39.5C 62.5138,39.3345 66.5138,39.5012 70.5,40C 71.5762,41.7261 71.7429,43.5594 71,45.5C 61.623,59.0876 52.123,72.5876 42.5,86C 38.4505,87.4844 36.4505,86.1511 36.5,82C 37.7568,73.1886 38.7568,64.3553 39.5,55.5C 36.1501,55.665 32.8168,55.4983 29.5,55C 28.1059,54.044 27.4393,52.7106 27.5,51C 29.5132,37.0661 31.8465,23.2327 34.5,9.5 Z M 39.5,16.5 C 45.2055,16.1712 50.8722,16.5046 56.5,17.5C 54.2394,26.0446 51.9061,34.5446 49.5,43C 50.1667,44 50.8333,45 51.5,46C 54.8333,46.3333 58.1667,46.6667 61.5,47C 56.3333,54.1667 51.1667,61.3333 46,68.5C 46.1169,62.4615 46.4502,56.4615 47,50.5C 46.5,50 46,49.5 45.5,49C 42.1832,48.5017 38.8499,48.335 35.5,48.5C 36.927,37.8445 38.2603,27.1778 39.5,16.5 Z"/></g>
</svg>
