<?xml version="1.0" standalone="no"?>
<!DOCTYPE svg PUBLIC "-//W3C//DTD SVG 20010904//EN"
 "http://www.w3.org/TR/2001/REC-SVG-20010904/DTD/svg10.dtd">
<svg version="1.0" xmlns="http://www.w3.org/2000/svg"
 width="512.000000pt" height="512.000000pt" viewBox="0 0 512.000000 512.000000"
 preserveAspectRatio="xMidYMid meet">

<g transform="translate(0.000000,512.000000) scale(0.100000,-0.100000)"
fill="#000000" stroke="none">
<path d="M3540 4443 c-478 -93 -860 -172 -880 -182 -27 -14 -140 -161 -508
-662 -261 -354 -523 -711 -583 -793 l-110 -148 -74 71 c-93 90 -144 114 -245
115 -122 0 -163 -25 -341 -203 -178 -178 -203 -219 -203 -341 1 -122 16 -146
235 -365 104 -105 189 -195 189 -200 0 -6 -110 -120 -245 -255 -281 -281 -289
-293 -290 -425 0 -122 18 -151 198 -333 184 -185 220 -207 342 -207 132 1 144
9 425 290 135 135 249 245 255 245 5 0 95 -85 200 -189 219 -219 243 -234 365
-235 122 0 164 25 341 203 178 177 203 219 203 341 -1 101 -25 152 -115 245
l-71 73 134 99 c73 54 284 209 468 345 184 135 481 353 659 485 246 180 329
247 342 273 27 54 353 1749 345 1794 -13 70 -86 127 -158 125 -18 -1 -413 -75
-878 -166z m-42 -863 c18 -11 41 -34 52 -52 24 -39 27 -117 6 -156 -8 -15
-327 -339 -708 -720 l-693 -692 -113 113 -112 112 698 696 c383 383 706 702
717 708 34 18 116 13 153 -9z m-1678 -1735 l675 -675 -113 -112 -112 -113
-677 677 -678 678 110 110 c60 60 112 110 115 110 3 0 309 -304 680 -675z"/>
</g>
</svg>
