<!-- icon666.com - MILLIONS vector ICONS FREE --><svg id="Capa_1" enable-background="new 0 0 512 512" viewBox="0 0 512 512" xmlns="http://www.w3.org/2000/svg"><g><path d="m302.812 116.228v-74.383l15.927 7.353c5.035 2.324 10.965.107 13.271-4.887 2.315-5.015.127-10.956-4.887-13.271-5.298-2.445-59.278-27.36-65.258-30.119-2.658-1.227-5.723-1.227-8.381 0-3.794 1.75-64.055 29.563-65.259 30.119-5.014 2.315-7.202 8.256-4.887 13.271 2.315 5.014 8.254 7.203 13.271 4.887l15.927-7.353v73.611c-89.812 19.914-157.185 100.178-157.185 195.894 0 110.639 90.01 200.65 200.649 200.65s200.65-90.011 200.65-200.65c0-94.524-65.706-173.979-153.838-195.122zm-70.277-83.612 25.139-11.602 25.138 11.602v79.881c-16.769-2.249-33.462-2.384-50.277-.417zm23.465 459.384c-99.61 0-180.649-81.039-180.649-180.65 0-99.61 81.039-180.649 180.649-180.649s180.65 81.039 180.65 180.649c0 99.611-81.04 180.65-180.65 180.65z"></path><path d="m256 156.919c-85.154 0-154.432 69.277-154.432 154.431s69.278 154.432 154.432 154.432 154.431-69.278 154.431-154.432-69.277-154.431-154.431-154.431zm0 288.863c-74.126 0-134.432-60.306-134.432-134.432 0-74.125 60.306-134.431 134.432-134.431 74.125 0 134.431 60.306 134.431 134.431 0 74.126-60.305 134.432-134.431 134.432z"></path><path d="m238.668 341.791h-47.772v-70.881c0-5.523-4.477-10-10-10s-10 4.477-10 10v80.881c0 5.523 4.477 10 10 10h57.772c5.523 0 10-4.477 10-10s-4.477-10-10-10z"></path><path d="m335.043 261.719c-5.075-2.177-10.955.176-13.13 5.252l-25.472 59.435-25.472-59.435c-2.175-5.076-8.055-7.428-13.13-5.252-5.077 2.175-7.428 8.054-5.252 13.13l34.663 80.881c1.576 3.677 5.191 6.061 9.191 6.061 4.001 0 7.616-2.384 9.191-6.061l34.664-80.881c2.175-5.076-.176-10.955-5.253-13.13z"></path></g></svg>